# xmcd
#
# Track frame offsets:
#	150
#	19799
#	37837
#	58707
#	72337
#
# Disc length: 1189 seconds
#
# Revision: 0
# Processed by: cddbd v1.5.1PL2 Copyright (c) Steve Scherf et al.
# Submitted via: dBpowerAMP V4.0
#
DISCID=3a04a305
DTITLE=고등 3-2부 찬양팀 - 찬양팀에게 주는 아름다운 선물
DYEAR=2005
DGENRE=Gospel
TTITLE0=그 사랑 있기 때문에
TTITLE1=누군가 널 위해 기도하네
TTITLE2=온맘 다해
TTITLE3=주만 보리라
TTITLE4=박종철 목사님, 시온 선배님, 김태경 선생님, 신애 선생님, 윤화 선생님 격려 메세지
EXTD=
EXTT0=
EXTT1=
EXTT2=
EXTT3=
EXTT4=
PLAYORDER=
